<?xml version="1.0" standalone="no"?>
<!DOCTYPE svg PUBLIC "-//W3C//DTD SVG 20010904//EN"
 "http://www.w3.org/TR/2001/REC-SVG-20010904/DTD/svg10.dtd">
<svg version="1.0" xmlns="http://www.w3.org/2000/svg"
 width="225.000000pt" height="225.000000pt" viewBox="0 0 225.000000 225.000000"
 preserveAspectRatio="xMidYMid meet">

<g transform="translate(0.000000,225.000000) scale(0.100000,-0.100000)"
fill="#000000" stroke="none">
<path d="M373 2156 c-142 -45 -248 -171 -273 -323 -13 -80 -13 -941 1 -1023
20 -126 109 -243 227 -298 l57 -27 317 -5 318 -5 198 -197 c162 -163 202 -198
225 -198 74 0 87 37 87 247 l0 151 168 4 c157 3 171 5 224 30 118 55 207 172
227 298 14 82 14 943 1 1023 -21 131 -102 242 -219 300 l-66 32 -725 2 c-580
2 -733 -1 -767 -11z m1533 -88 c67 -35 138 -115 161 -181 16 -48 18 -95 18
-562 0 -586 2 -573 -86 -669 -81 -89 -113 -100 -321 -106 -237 -7 -222 8 -226
-227 l-4 -176 -191 191 c-106 105 -205 196 -220 202 -17 6 -141 10 -320 10
-349 0 -359 2 -453 95 -102 101 -99 80 -99 680 0 467 2 514 18 562 31 88 123
175 217 204 14 4 347 7 740 6 l715 -2 51 -27z"/>
<path d="M424 1706 c-3 -8 -4 -23 -2 -33 3 -17 36 -18 703 -18 l700 0 0 30 0
30 -698 3 c-601 2 -698 0 -703 -12z"/>
<path d="M427 1363 c-13 -12 -7 -51 9 -57 24 -9 1367 -7 1382 3 8 4 12 19 10
32 l-3 24 -696 3 c-382 1 -699 -1 -702 -5z"/>
<path d="M424 1005 c-4 -8 -4 -22 0 -30 8 -23 851 -23 860 0 3 8 3 22 0 30 -9
23 -852 23 -860 0z"/>
</g>
</svg>
