<?xml version="1.0" standalone="no"?>
<!DOCTYPE svg PUBLIC "-//W3C//DTD SVG 20010904//EN"
 "http://www.w3.org/TR/2001/REC-SVG-20010904/DTD/svg10.dtd">
<svg version="1.0" xmlns="http://www.w3.org/2000/svg"
 width="512.000000pt" height="512.000000pt" viewBox="0 0 512.000000 512.000000"
 preserveAspectRatio="xMidYMid meet">

<g transform="translate(0.000000,512.000000) scale(0.100000,-0.100000)"
fill="#000000" stroke="none">
<path d="M2377 4829 c-268 -31 -541 -134 -757 -287 -107 -75 -312 -275 -380
-370 -153 -214 -248 -434 -297 -695 -24 -125 -23 -497 1 -681 86 -657 321
-1211 729 -1718 120 -149 275 -306 457 -463 91 -78 212 -183 269 -233 58 -50
117 -94 133 -97 54 -12 85 5 220 123 73 64 195 170 270 234 647 558 1043 1296
1154 2153 24 185 25 557 1 682 -97 510 -399 928 -847 1170 -278 151 -637 219
-953 182z m385 -84 c347 -46 644 -192 893 -440 360 -358 502 -782 455 -1362
-43 -526 -210 -1037 -481 -1471 -198 -317 -403 -551 -734 -834 -93 -80 -204
-175 -245 -212 -41 -36 -82 -66 -90 -66 -13 0 -180 141 -493 418 -335 295
-638 726 -817 1164 -152 370 -230 732 -247 1144 -19 490 130 887 457 1214 347
347 820 509 1302 445z"/>
<path d="M2387 4185 c-396 -75 -701 -363 -800 -755 -29 -115 -30 -329 -3 -445
87 -380 381 -674 761 -761 110 -26 320 -26 430 0 634 146 968 843 679 1419
-133 265 -372 457 -659 528 -107 27 -304 34 -408 14z m333 -81 c385 -73 671
-359 744 -744 67 -353 -94 -725 -403 -928 -366 -240 -845 -188 -1155 126 -351
355 -352 924 -4 1280 217 222 524 322 818 266z"/>
</g>
</svg>
