<?xml version="1.0" standalone="no"?>
<!DOCTYPE svg PUBLIC "-//W3C//DTD SVG 20010904//EN"
 "http://www.w3.org/TR/2001/REC-SVG-20010904/DTD/svg10.dtd">
<svg version="1.0" xmlns="http://www.w3.org/2000/svg"
 width="259.000000pt" height="194.000000pt" viewBox="0 0 259.000000 194.000000"
 preserveAspectRatio="xMidYMid meet">

<g transform="translate(0.000000,194.000000) scale(0.100000,-0.100000)"
fill="#000000" stroke="none">
<path d="M605 1756 c-64 -29 -115 -110 -115 -183 1 -75 63 -163 126 -179 l24
-6 0 -414 0 -414 -37 -19 c-127 -65 -150 -226 -47 -323 38 -35 74 -48 135 -48
82 0 162 55 184 128 l6 22 414 0 414 0 6 -22 c22 -73 102 -128 184 -128 61 0
97 13 135 48 103 97 80 258 -46 323 l-38 19 0 414 0 414 24 6 c64 16 126 105
126 181 0 74 -57 159 -123 184 -45 17 -124 13 -167 -9 -40 -21 -83 -69 -95
-107 l-6 -23 -414 0 -414 0 -6 23 c-12 38 -55 86 -95 107 -46 23 -130 26 -175
6z m134 -90 c31 -17 51 -54 51 -97 0 -40 -56 -99 -94 -99 -73 0 -127 70 -106
136 22 65 87 92 149 60z m1224 -6 c14 -11 31 -36 37 -54 21 -66 -33 -136 -106
-136 -39 0 -94 59 -94 102 1 88 97 140 163 88z m-238 -171 c20 -43 61 -80 108
-98 l27 -11 0 -410 0 -410 -27 -11 c-47 -18 -88 -55 -108 -98 l-18 -41 -412 0
-412 0 -18 41 c-20 43 -61 80 -108 98 l-27 11 0 410 0 410 37 15 c49 21 76 47
98 96 l18 39 412 0 412 0 18 -41z m-962 -1059 c61 -68 12 -170 -81 -170 -63 0
-112 73 -91 137 25 75 117 93 172 33z m1188 24 c42 -21 64 -75 49 -120 -38
-115 -200 -88 -200 34 0 33 32 79 64 92 32 13 54 12 87 -6z"/>
</g>
</svg>
